<?xml version="1.0" standalone="no"?>
<!DOCTYPE svg PUBLIC "-//W3C//DTD SVG 20010904//EN"
 "http://www.w3.org/TR/2001/REC-SVG-20010904/DTD/svg10.dtd">
<svg version="1.0" xmlns="http://www.w3.org/2000/svg"
 width="250.000000pt" height="250.000000pt" viewBox="0 0 250.000000 250.000000"
 preserveAspectRatio="xMidYMid meet">
<metadata>
Created by potrace 1.14, written by Peter Selinger 2001-2017
</metadata>
<g transform="translate(0.000000,250.000000) scale(0.100000,-0.100000)"
fill="#000000" stroke="none">
<path d="M1044 2239 c-22 -4 -60 -10 -87 -13 -89 -12 -97 -19 -98 -78 -1 -29
0 -63 0 -74 4 -47 -69 -95 -111 -73 -27 14 -56 -20 -82 -96 -41 -118 -49 -157
-51 -247 -1 -49 -4 -91 -8 -94 -3 -3 -64 -6 -135 -6 l-130 -1 0 -196 c0 -108
-1 -216 -2 -241 -1 -41 -6 -51 -71 -120 -39 -41 -100 -119 -136 -173 -236
-353 -141 -583 238 -572 52 2 110 6 129 10 95 17 188 38 241 55 l59 18 0 -34
0 -34 281 0 280 0 -1 67 c-1 38 -1 83 -1 101 l1 32 66 0 66 0 195 195 c179
180 195 198 191 226 -4 25 2 35 40 66 44 36 44 36 93 24 59 -15 139 -16 148
-2 4 5 5 51 4 101 l-3 90 38 42 c20 24 45 52 55 63 91 98 183 246 218 350 61
181 0 307 -171 353 -52 13 -239 19 -285 9 -11 -3 -40 -8 -65 -12 -72 -12 -80
-14 -137 -30 -31 -9 -57 -14 -59 -12 -2 2 -5 30 -7 63 l-3 59 -109 -3 c-61 -2
-128 -5 -151 -6 -40 -2 -41 -1 -69 51 l-28 53 -69 -1 c-38 -1 -70 0 -72 2 -1
2 -20 26 -41 52 -36 45 -40 47 -80 45 -24 -2 -60 -6 -81 -9z m1210 -284 c134
-16 210 -95 208 -216 -2 -129 -118 -329 -299 -516 -56 -58 -62 -62 -90 -54
-92 26 -121 101 -63 160 33 32 84 47 125 37 28 -7 27 -12 27 108 0 44 -5 81
-10 85 -14 9 -78 7 -122 -3 -103 -24 -195 -100 -229 -190 -44 -115 -13 -228
85 -315 l46 -40 -29 -25 c-15 -14 -31 -26 -35 -26 -3 0 -12 24 -18 53 -16 65
-44 123 -65 131 -9 3 -24 24 -34 47 -18 40 -18 43 -1 83 20 46 26 136 11 164
-7 14 1 41 39 118 66 133 66 159 0 225 -40 40 -50 57 -50 83 0 27 5 35 23 39
172 40 222 49 277 54 36 3 66 7 68 8 3 3 64 -2 136 -10z m-1643 -577 c1 -5 2
-15 2 -23 0 -40 -4 -45 -32 -45 -32 0 -39 10 -33 50 3 23 9 27 33 26 16 0 30
-4 30 -8z m70 -85 c0 -5 2 -30 4 -57 5 -65 47 -148 97 -190 l41 -35 -15 -38
c-13 -31 -15 -90 -13 -320 2 -310 7 -283 -50 -300 -166 -47 -276 -65 -400 -66
-329 -1 -403 200 -190 517 29 45 70 99 90 121 20 22 48 55 63 74 l27 34 5 -29
5 -29 90 0 90 0 0 88 c-1 97 -7 91 83 87 l42 -2 0 76 c0 61 3 76 15 76 8 0 15
-3 16 -7z"/>
</g>
</svg>
